<svg width="21" height="8" viewBox="0 0 21 8" fill="none" xmlns="http://www.w3.org/2000/svg">
<path id="Battery_Icon_-_100_x25__14_" fill-rule="evenodd" clip-rule="evenodd" d="M21 4C21 4.81421 20.5429 5.47368 19.7143 5.47368V2.52632C20.5429 2.52632 21 3.18596 21 4ZM19.2857 1.26316V6.73684V6.74404C19.2857 7.44147 18.7099 8 18 8H1.28573C0.57567 8 0 7.44147 0 6.74404V6.73684V1.26316C0 0.565542 0.57567 0 1.28573 0H18C18.7099 -1.79937e-07 19.2857 0.565542 19.2857 1.26316ZM1.28573 0.421052C0.813019 0.421052 0.428587 0.79892 0.428587 1.26316V6.73684C0.428587 7.20126 0.813019 7.57895 1.28573 7.57895H18C18.4727 7.57895 18.8571 7.20126 18.8571 6.73684V1.26316C18.8571 0.79892 18.4727 0.421052 18 0.421052H1.28573ZM0.857147 1.26316V6.73684C0.857147 6.96914 1.04945 7.15789 1.28573 7.15789H18C18.2363 7.15789 18.4286 6.96914 18.4286 6.73684V1.26316C18.4286 1.03104 18.2363 0.842105 18 0.842105H1.28573C1.04945 0.842105 0.857147 1.03104 0.857147 1.26316Z" fill="black"/>
</svg>
