<svg width="31" height="38" viewBox="0 0 31 38" fill="none" xmlns="http://www.w3.org/2000/svg">
<g clip-path="url(#clip0_21_8392)">
<path d="M31 9.91846L21.3142 0.0049438V0.0043945H21.3137L21.3094 0L21.3049 0.0043945H3.14592C1.41116 0.0043945 0 1.42676 0 3.1748V34.6187C0 36.3667 1.41116 37.7896 3.14592 37.7896H27.8541C29.5884 37.7896 30.999 36.3667 30.999 34.6187V9.91943L31 9.91846ZM28.1812 9.88452L21.2919 9.80273L21.3077 2.84949L28.1812 9.88452ZM29.0148 34.6187C29.0148 35.2642 28.4945 35.7896 27.8541 35.7896H3.14592C2.5055 35.7896 1.98425 35.2642 1.98425 34.6187V3.1748C1.98425 2.5293 2.5055 2.00439 3.14592 2.00439H19.3261L19.3038 11.7793L29.0148 11.8945V34.6187Z" fill="black" fill-opacity="0.54"/>
</g>
<defs>
<clipPath id="clip0_21_8392">
<rect width="31" height="37.7896" fill="white"/>
</clipPath>
</defs>
</svg>
