<svg width="132" height="113" viewBox="0 0 132 113" fill="none" xmlns="http://www.w3.org/2000/svg">
<path d="M125.399 8.86275H59.7086V4.43137C59.7086 3.84382 59.4768 3.28 59.0643 2.86457C58.6509 2.44913 58.092 2.21569 57.5086 2.21569H40.546C39.3311 2.21569 38.346 3.20781 38.346 4.43137V8.86275H35.2001V2.21569C35.2001 1.62814 34.9683 1.06431 34.5558 0.64888C34.1433 0.233445 33.5835 0 33.0001 0H8.49152C7.27661 0 6.29151 0.992121 6.29151 2.21569V8.86275C4.59535 8.94287 2.99452 9.67781 1.82287 10.9162C0.651155 12.1536 -0.00195674 13.7997 4.40389e-06 15.5099V106.353C4.40389e-06 108.116 0.695357 109.807 1.93287 111.053C3.17037 112.299 4.84995 113 6.59989 113H125.4C127.15 113 128.83 112.3 130.067 111.053C131.304 109.807 132 108.115 132 106.353V15.5099C132 13.7473 131.305 12.0557 130.067 10.8096C128.83 9.56351 127.15 8.86297 125.4 8.86297L125.399 8.86275ZM42.7447 6.64706H55.3064V8.86275H42.7447V6.64706ZM10.69 4.43137H30.7986V8.86275H10.69V4.43137ZM6.59851 13.2941H125.399C125.982 13.2941 126.542 13.5276 126.954 13.943C127.367 14.3584 127.599 14.9223 127.599 15.5098V31.0196H87.2067C80.9682 26.6941 73.5724 24.3784 65.9981 24.3784C58.4238 24.3784 51.0283 26.694 44.7896 31.0196H4.3975V15.5098C4.3975 14.2862 5.3826 13.2941 6.5975 13.2941H6.59851ZM127.599 88.6275H92.3987L92.5529 88.4722C93.2787 87.7184 93.9829 86.9212 94.7529 86.1012L95.1713 85.5918C95.8313 84.7273 96.4913 83.8637 97.0855 82.9547L97.0845 82.9557C97.0884 82.8964 97.0884 82.837 97.0845 82.7777C97.6561 81.9131 98.1845 81.0051 98.6903 80.0743L98.9545 79.5649C99.4574 78.6292 99.9131 77.6677 100.319 76.6845L100.56 76.1088C100.956 75.09 101.33 74.0702 101.66 73.0069C101.969 71.988 102.232 70.9237 102.452 69.8831H102.453C102.463 69.6833 102.463 69.4835 102.453 69.2847C102.669 68.2372 102.831 67.1798 102.937 66.1164C102.948 65.9017 102.948 65.6871 102.937 65.4734C103.168 63.2637 103.168 61.0362 102.937 58.8264C102.948 58.6127 102.948 58.3981 102.937 58.1834C102.831 57.1201 102.669 56.0627 102.453 55.0151C102.463 54.8163 102.463 54.6165 102.453 54.4167C102.233 53.3751 101.969 52.3118 101.661 51.2929C101.331 50.2296 100.957 49.2098 100.561 48.191L100.32 47.6153H100.319C99.9131 46.6321 99.4574 45.6706 98.9545 44.7349L98.6903 44.2255C98.1845 43.2947 97.6561 42.3867 97.0845 41.5221C97.0884 41.4627 97.0884 41.4034 97.0845 41.3441C96.4903 40.436 95.8303 39.5715 95.1703 38.707L94.7519 38.1976C94.0703 37.3776 93.3661 36.5803 92.5519 35.8266L92.5529 35.8276C92.4763 35.7138 92.4242 35.5853 92.3987 35.4507H127.599V88.6275ZM46.7492 89.0489C38.127 82.7895 33.0129 72.7427 32.9991 62.0403C33.0187 51.3427 38.1219 41.3019 46.7276 35.0317C53.3354 30.2443 61.4676 28.0848 69.5604 28.9701C77.6541 29.8544 85.1361 33.721 90.5703 39.8259C96.0044 45.9298 99.007 53.8422 98.9989 62.041C98.9793 72.7386 93.8761 82.7794 85.2704 89.0496C79.6585 93.112 72.921 95.2981 66.0097 95.2981C59.0984 95.2981 52.3609 93.1121 46.749 89.0496L46.7492 89.0489ZM39.5991 88.6275H4.39901V35.451H39.5991C39.5539 35.5084 39.5018 35.5598 39.4449 35.6063C38.7191 36.36 38.0149 37.1573 37.2449 37.9773L36.8265 38.4867C36.1665 39.3512 35.5065 40.2147 34.9123 41.1237L34.9132 41.1227C34.871 41.1791 34.8347 41.2385 34.8032 41.3008C34.2317 42.1653 33.7032 43.0733 33.1974 44.0042L32.9332 44.5136C32.4304 45.4493 31.9747 46.4108 31.569 47.394L31.3274 47.9696C30.9316 48.9884 30.5574 50.0083 30.2274 51.0716C29.919 52.0904 29.6558 53.1548 29.4358 54.1953H29.4348C29.425 54.3951 29.425 54.595 29.4348 54.7938C29.2188 55.8413 29.0567 56.8987 28.9506 57.9621C28.9398 58.1767 28.9398 58.3914 28.9506 58.605C28.7198 60.8148 28.7198 63.0422 28.9506 65.2521C28.9398 65.4658 28.9398 65.6804 28.9506 65.8951C29.0567 66.9584 29.2188 68.0158 29.4348 69.0634V69.6618C29.6549 70.7034 29.919 71.8775 30.2264 72.7855L30.2274 73.1179C30.5574 74.1595 30.9316 75.1783 31.3274 76.1981C31.3274 76.3979 31.5032 76.5967 31.569 76.7965C31.9874 77.7718 32.4274 78.7244 32.9332 79.6551L33.1974 80.1873C33.7032 81.0953 34.2317 81.9816 34.8032 82.8679V82.8669C34.8445 82.9223 34.8818 82.9816 34.9132 83.044C35.5065 83.948 36.1448 84.8205 36.8275 85.6582L37.2459 86.1904C37.9275 87.0104 38.6317 87.8076 39.4459 88.5614L39.5991 88.6275ZM125.399 108.569H6.59901C5.38411 108.569 4.39901 107.577 4.39901 106.353V93.0588H44.7911C51.0295 97.3844 58.4253 99.7001 65.9996 99.7001C73.5739 99.7001 80.9695 97.3845 87.2082 93.0588H127.6V106.353C127.6 106.941 127.368 107.504 126.956 107.92C126.543 108.335 125.984 108.569 125.4 108.569H125.399ZM92.3992 62.0392C92.3992 54.9875 89.6179 48.2247 84.6667 43.2386C79.7156 38.2524 73.0009 35.451 65.9991 35.451C58.9973 35.451 52.2824 38.2521 47.3315 43.2386C42.3806 48.225 39.5991 54.9875 39.5991 62.0392C39.5991 69.0909 42.3804 75.8537 47.3315 80.8399C52.2827 85.8261 58.9973 88.6275 65.9991 88.6275C73.0009 88.6275 79.7158 85.8263 84.6667 80.8399C89.6176 75.8535 92.3992 69.0909 92.3992 62.0392ZM43.9991 62.0392C43.9991 56.1627 46.317 50.5275 50.443 46.3722C54.569 42.2168 60.1642 39.8824 65.9991 39.8824C71.834 39.8824 77.4293 42.2168 81.5553 46.3722C85.6812 50.5276 87.9992 56.1627 87.9992 62.0392C87.9992 67.9157 85.6813 73.5509 81.5553 77.7063C77.4293 81.8616 71.834 84.1961 65.9991 84.1961C60.1642 84.1961 54.5689 81.8617 50.443 77.7063C46.317 73.5509 43.9991 67.9157 43.9991 62.0392ZM101.199 28.8039H118.799C119.383 28.8039 119.942 28.5705 120.355 28.155C120.767 27.7396 120.999 27.1758 120.999 26.5882V17.7255C120.999 17.1379 120.767 16.5741 120.355 16.1587C119.942 15.7433 119.383 15.5098 118.799 15.5098H101.199C99.9843 15.5098 98.9992 16.5019 98.9992 17.7255V26.5882C98.9992 27.1758 99.231 27.7396 99.6435 28.155C100.056 28.5705 100.616 28.8039 101.199 28.8039ZM103.399 19.9412H116.599V24.3726H103.399V19.9412Z" fill="#BDBDBD"/>
<g clip-path="url(#clip0_22_7050)">
<path d="M66.0001 37.6667C53.0967 37.6667 42.6667 48.0967 42.6667 61C42.6667 73.9033 53.0967 84.3333 66.0001 84.3333C78.9034 84.3333 89.3334 73.9033 89.3334 61C89.3334 48.0967 78.9034 37.6667 66.0001 37.6667ZM77.6668 69.3767L74.3768 72.6667L66.0001 64.29L57.6234 72.6667L54.3334 69.3767L62.7101 61L54.3334 52.6233L57.6234 49.3333L66.0001 57.71L74.3768 49.3333L77.6668 52.6233L69.2901 61L77.6668 69.3767Z" fill="#BDBDBD"/>
</g>
<defs>
<clipPath id="clip0_22_7050">
<rect width="56" height="56" fill="white" transform="translate(38 33)"/>
</clipPath>
</defs>
</svg>
