<svg width="11" height="8" viewBox="0 0 11 8" fill="none" xmlns="http://www.w3.org/2000/svg">
<g id="Group">
<path id="Wi-Fi_Icon_24_" d="M5.05245 0C6.82733 0 8.62004 0.698998 10.1114 1.97043L9.43835 2.71829C8.20919 1.68322 6.65593 1.11457 5.05245 1.11457C3.44968 1.11457 1.8984 1.6816 0.671574 2.71324L0 1.96538C1.48933 0.697015 3.27935 0 5.05245 0ZM5.05245 2.62075C6.25065 2.62075 7.43698 3.06265 8.4049 3.86766L7.6847 4.66816C6.94148 4.06526 6.01084 3.73442 5.05245 3.73442C4.09604 3.73442 3.16646 4.064 2.42286 4.66492L1.70359 3.86369C2.67132 3.06138 3.85639 2.62075 5.05245 2.62075ZM5.05245 5.20598C5.61418 5.20598 6.186 5.41331 6.67392 5.79157L5.05245 7.59396L3.43257 5.78941C3.91996 5.41241 4.49107 5.20598 5.05245 5.20598Z" fill="white"/>
</g>
</svg>
